<?xml version="1.0" standalone="no"?>
<!DOCTYPE svg PUBLIC "-//W3C//DTD SVG 20010904//EN"
 "http://www.w3.org/TR/2001/REC-SVG-20010904/DTD/svg10.dtd">
<svg version="1.0" xmlns="http://www.w3.org/2000/svg"
 width="3592.000000pt" height="447.000000pt" viewBox="0 0 3592.000000 447.000000"
 preserveAspectRatio="xMidYMid meet">
<metadata>
Created by potrace 1.16, written by Peter Selinger 2001-2019
</metadata>
<g transform="translate(0.000000,447.000000) scale(0.100000,-0.100000)"
fill="#000000" stroke="none">
<path d="M768 4463 l742 -3 0 -745 0 -745 745 0 745 0 0 -745 0 -745 -745 0
-745 0 -2 743 -3 742 -740 0 -740 0 0 -745 0 -745 743 -3 742 -2 0 -730 0
-730 743 3 742 2 3 733 2 732 750 0 750 0 2 -732 3 -733 740 0 740 0 3 733 2
732 745 0 745 0 2 -732 3 -733 740 0 740 0 3 733 2 732 -745 0 -745 0 0 745 0
745 743 2 742 3 3 748 2 747 -745 0 -745 0 0 -750 0 -750 -742 2 -743 3 -3
748 -2 747 -745 0 -745 0 0 -750 0 -750 -750 0 -750 0 0 750 0 750 -1487 -2
c-819 -2 -1154 -4 -745 -5z m5222 -2238 l0 -745 -745 0 -745 0 0 745 0 745
745 0 745 0 0 -745z"/>
<path d="M9748 4463 l742 -3 0 -745 0 -745 745 0 745 0 0 -745 0 -745 -745 0
-745 0 -2 743 -3 742 -740 0 -740 0 0 -745 0 -745 743 -3 742 -2 0 -730 0
-730 743 3 742 2 3 733 2 732 750 0 750 0 2 -732 3 -733 740 0 740 0 3 733 2
732 745 0 745 0 2 -732 3 -733 740 0 740 0 3 733 2 732 -745 0 -745 0 0 745 0
745 743 2 742 3 3 748 2 747 -745 0 -745 0 0 -750 0 -750 -742 2 -743 3 -3
748 -2 747 -745 0 -745 0 0 -750 0 -750 -750 0 -750 0 0 750 0 750 -1487 -2
c-819 -2 -1154 -4 -745 -5z m5222 -2238 l0 -745 -745 0 -745 0 0 745 0 745
745 0 745 0 0 -745z"/>
<path d="M18728 4463 l742 -3 0 -745 0 -745 745 0 745 0 0 -745 0 -745 -745 0
-745 0 -2 743 -3 742 -740 0 -740 0 0 -745 0 -745 743 -3 742 -2 0 -730 0
-730 743 3 742 2 3 733 2 732 750 0 750 0 2 -732 3 -733 740 0 740 0 3 733 2
732 745 0 745 0 2 -732 3 -733 740 0 740 0 3 733 2 732 -745 0 -745 0 0 745 0
745 743 2 742 3 3 748 2 747 -745 0 -745 0 0 -750 0 -750 -742 2 -743 3 -3
748 -2 747 -745 0 -745 0 0 -750 0 -750 -750 0 -750 0 0 750 0 750 -1487 -2
c-819 -2 -1154 -4 -745 -5z m5222 -2238 l0 -745 -745 0 -745 0 0 745 0 745
745 0 745 0 0 -745z"/>
<path d="M27708 4463 l742 -3 0 -745 0 -745 745 0 745 0 0 -745 0 -745 -745 0
-745 0 -2 743 -3 742 -740 0 -740 0 0 -745 0 -745 743 -3 742 -2 0 -730 0
-730 743 3 742 2 3 733 2 732 750 0 750 0 2 -732 3 -733 740 0 740 0 3 733 2
732 745 0 745 0 2 -732 3 -733 740 0 740 0 3 733 2 732 -745 0 -745 0 0 745 0
745 743 2 742 3 3 748 2 747 -745 0 -745 0 0 -750 0 -750 -742 2 -743 3 -3
748 -2 747 -745 0 -745 0 0 -750 0 -750 -750 0 -750 0 0 750 0 750 -1487 -2
c-819 -2 -1154 -4 -745 -5z m5222 -2238 l0 -745 -745 0 -745 0 0 745 0 745
745 0 745 0 0 -745z"/>
</g>
</svg>
