<?xml version="1.0" standalone="no"?>
<!DOCTYPE svg PUBLIC "-//W3C//DTD SVG 20010904//EN"
 "http://www.w3.org/TR/2001/REC-SVG-20010904/DTD/svg10.dtd">
<svg version="1.0" xmlns="http://www.w3.org/2000/svg"
 width="5205.000000pt" height="5205.000000pt" viewBox="0 0 5205.000000 5205.000000"
 preserveAspectRatio="xMidYMid meet">
<metadata>
Created by potrace 1.10, written by Peter Selinger 2001-2011
</metadata>
<g transform="translate(0.000000,5205.000000) scale(0.100000,-0.100000)"
fill="#000000" stroke="none">
<path d="M27 52003 c-11 -10 -8 -13431 2 -13437 12 -8 13423 -8 13430 0 9 8 5
13419 -3 13433 -5 8 -1681 11 -6715 11 -3689 0 -6711 -3 -6714 -7z m1698 -888
l0 -810 -817 -3 -818 -2 0 809 c0 638 3 810 13 814 6 3 374 5 817 4 l805 -2 0
-810z m3354 801 c8 -10 11 -231 11 -811 0 -439 2 -800 4 -802 3 -3 373 -6 823
-7 l818 -1 3 -830 2 -830 -812 3 c-447 2 -819 5 -825 7 -10 4 -13 176 -13 817
0 447 -4 819 -8 825 -6 10 -189 13 -838 15 l-829 3 -3 800 c-1 440 0 806 3
813 7 19 1648 18 1664 -2z m3346 -8 c3 -13 4 -378 3 -813 l-3 -790 -827 -3
-828 -2 0 808 c0 445 3 812 7 815 3 4 374 7 824 7 l819 0 5 -22z m3350 -793
l0 -810 -832 -3 -833 -2 0 809 c0 638 3 810 13 814 6 3 381 5 832 4 l820 -2 0
-810z m-8371 -851 c3 -9 6 -372 6 -809 0 -656 -2 -794 -14 -804 -10 -8 -235
-10 -832 -9 l-819 3 -3 805 c-1 443 0 811 3 818 3 9 178 12 829 12 742 0 824
-2 830 -16z m6691 -809 l0 -820 -830 0 -830 0 -3 814 c-2 645 0 816 10 823 7
4 382 7 833 5 l820 -2 0 -820z m3333 11 c1 -582 -1 -802 -9 -812 -10 -12 -150
-14 -815 -14 -486 0 -805 4 -809 9 -4 7 -8 1234 -5 1609 0 10 167 12 818 10
l817 -3 3 -799z m-8360 -1673 l2 -823 -22 -5 c-13 -3 -385 -4 -828 -3 l-805 3
-3 828 -2 827 827 -2 828 -3 3 -822z m3350 0 l-3 -828 -819 -3 c-597 -1 -822
1 -832 9 -19 16 -21 1618 -2 1637 9 9 208 12 835 12 l823 0 -2 -827z m3357 -3
l0 -825 -835 0 -835 0 -3 828 -2 827 837 -2 838 -3 0 -825z m-10067 798 c17
-17 17 -1599 0 -1616 -9 -9 -200 -12 -799 -12 -433 0 -794 3 -803 6 -14 6 -16
87 -16 813 0 444 3 811 7 814 3 4 365 7 803 7 606 0 799 -3 808 -12z m1682
-2473 l0 -825 -22 -5 c-13 -3 -385 -4 -828 -3 l-805 3 -3 828 -2 827 830 0
830 0 0 -825z m3348 -7 l-3 -833 -822 -3 -823 -2 0 835 0 835 825 0 825 0 -2
-832z m3362 8 c0 -742 -2 -824 -16 -830 -20 -8 -1618 -8 -1638 0 -14 6 -16 87
-16 823 0 450 3 821 7 824 3 4 379 7 835 7 l828 0 0 -824z m3324 9 c0 -624 -3
-815 -12 -833 l-13 -22 -802 2 -802 3 -5 820 c-3 451 -3 826 -1 833 2 10 171
12 820 10 l816 -3 -1 -810z m-8366 -863 c10 -7 12 -179 10 -828 l-3 -819 -230
-7 c-126 -4 -499 -5 -827 -1 l-598 6 0 823 c0 648 3 823 13 827 21 9 1621 7
1635 -1z m3362 -7 c10 -12 12 -189 8 -826 -3 -698 -6 -811 -18 -819 -9 -6
-344 -10 -821 -10 -734 0 -808 1 -820 16 -11 14 -14 163 -17 822 -4 768 -3
806 14 819 14 10 172 13 830 13 709 0 813 -2 824 -15z m3329 9 l31 -7 -2 -821
-3 -821 -240 -7 c-132 -4 -507 -5 -832 -1 l-593 6 0 823 c0 775 1 823 18 827
27 7 1585 8 1621 1z m-10045 -10 c14 -6 16 -87 16 -820 0 -794 0 -814 -19
-824 -21 -11 -1547 -15 -1589 -4 l-22 6 0 824 0 824 799 0 c440 0 806 -3 815
-6z m1684 -2491 l2 -833 -830 0 -830 0 0 835 0 835 828 -2 827 -3 3 -832z
m3352 2 l0 -835 -827 2 -828 3 -5 813 c-3 447 -2 822 2 833 7 19 25 19 833 19
l825 0 0 -835z m3355 0 l0 -830 -810 -3 c-445 -1 -820 0 -832 3 l-23 5 0 824
c0 452 3 826 7 829 3 4 378 6 832 5 l826 -3 0 -830z m3329 813 c10 -40 7
-1594 -4 -1622 l-10 -26 -812 2 -813 3 -3 820 c-1 451 0 826 3 833 3 9 176 12
819 12 l814 0 6 -22z m-11723 -1658 c19 -10 19 -30 19 -819 0 -669 -2 -810
-14 -820 -10 -8 -230 -10 -812 -9 l-799 3 -3 815 c-2 757 -1 816 15 828 22 16
1563 18 1594 2z m3357 -814 c1 -488 -2 -823 -7 -830 -7 -8 -235 -10 -828 -6
l-818 5 0 820 c0 451 1 823 3 828 2 4 373 6 825 5 l822 -3 3 -819z m3351 810
c8 -10 10 -234 9 -827 l-3 -814 -819 -3 c-597 -1 -822 1 -832 9 -12 10 -14
150 -14 815 0 716 2 804 16 818 14 14 102 16 823 16 669 0 810 -2 820 -14z
m3354 2 c16 -12 17 -71 15 -828 l-3 -815 -830 0 -830 0 -3 815 c-2 757 -1 816
15 828 13 9 193 12 818 12 625 0 805 -3 818 -12z m-8373 -2477 c0 -637 -3
-811 -12 -818 -26 -16 -598 -24 -1113 -16 l-530 8 -3 818 -2 817 830 0 830 0
0 -809z m3350 -11 l0 -820 -824 0 c-488 0 -827 4 -830 9 -8 12 -8 1609 -1
1622 4 5 325 9 831 9 l824 0 0 -820z m3355 0 l0 -815 -830 0 -830 0 -3 805
c-1 443 0 811 3 818 3 10 175 12 832 10 l828 -3 0 -815z m3332 15 c2 -470 -1
-806 -6 -814 -15 -23 -389 -32 -1046 -25 -313 3 -576 5 -582 4 -10 0 -13 170
-13 820 l0 820 823 -2 822 -3 2 -800z"/>
</g>
</svg>
