<?xml version="1.0" standalone="no"?>
<!DOCTYPE svg PUBLIC "-//W3C//DTD SVG 20010904//EN"
 "http://www.w3.org/TR/2001/REC-SVG-20010904/DTD/svg10.dtd">
<svg version="1.0" xmlns="http://www.w3.org/2000/svg"
 width="900.000000pt" height="900.000000pt" viewBox="0 0 900.000000 900.000000"
 preserveAspectRatio="xMidYMid meet">
<metadata>
Created by potrace 1.10, written by Peter Selinger 2001-2011
</metadata>
<g transform="translate(0.000000,900.000000) scale(0.100000,-0.100000)"
fill="#000000" stroke="none">
<path d="M17 8953 c-9 -8 -9 -8900 -1 -8931 l6 -22 4468 0 4467 0 10 23 c18
38 1 53 -33 31 -26 -18 -58 -19 -544 -19 -283 0 -521 4 -527 9 -10 7 -13 128
-13 547 l0 539 543 -2 c298 -2 550 -7 559 -12 17 -8 18 82 18 1807 0 999 -4
1818 -9 1821 -9 6 -21 -97 -21 -185 0 -36 -5 -61 -14 -68 -9 -8 -160 -10 -542
-9 l-529 3 -3 544 c-1 393 1 548 9 557 9 12 105 14 535 14 462 0 524 -2 538
-16 14 -13 16 -48 16 -232 0 -143 3 -213 10 -206 11 11 15 3788 5 3805 -7 10
-8938 13 -8948 2z m1121 -45 c9 -9 12 -143 12 -540 0 -511 -1 -528 -19 -538
-26 -13 -1040 -14 -1061 0 -13 8 -15 80 -18 530 -2 353 1 527 8 540 10 20 22
20 538 20 397 0 531 -3 540 -12z m2242 -530 c3 -295 9 -540 13 -545 5 -4 254
-10 553 -11 l544 -4 -2 -550 -3 -550 -540 1 c-490 2 -541 3 -552 18 -10 13
-13 139 -13 550 l0 533 -536 0 c-350 0 -542 4 -555 10 -18 10 -19 27 -19 544
0 293 3 536 7 539 3 4 252 6 552 5 l546 -3 5 -537z m2230 522 c7 -13 10 -187
8 -540 -3 -450 -5 -522 -18 -530 -16 -11 -1048 -14 -1074 -4 -14 6 -16 63 -16
543 0 296 3 541 7 544 3 4 248 7 544 7 527 0 539 0 549 -20z m2234 4 c3 -9 6
-251 6 -539 0 -429 -2 -525 -14 -534 -9 -8 -162 -10 -552 -9 l-539 3 -3 535
c-1 294 0 541 3 548 3 9 122 12 549 12 487 0 544 -2 550 -16z m-5576 -1614 c1
-289 0 -535 -3 -548 l-5 -22 -548 2 -547 3 -3 548 -2 547 552 -2 553 -3 3
-525z m4460 -19 c2 -429 0 -546 -10 -553 -15 -9 -1058 -11 -1082 -2 -14 6 -16
63 -16 548 0 299 3 546 7 549 3 4 252 6 552 5 l546 -3 3 -544z m2206 527 c14
-20 16 -87 16 -533 -1 -408 -3 -513 -14 -527 -12 -17 -50 -18 -539 -18 -510 0
-527 1 -537 19 -12 23 -14 1039 -2 1057 4 6 14 14 22 17 8 3 245 6 527 6 l512
1 15 -22z m-5556 -1640 l-3 -553 -552 -3 -553 -2 0 555 0 555 555 0 555 0 -2
-552z m2230 17 c1 -291 0 -540 -3 -553 l-5 -22 -548 2 -547 3 -3 540 c-1 297
0 546 3 553 3 10 119 12 552 10 l548 -3 3 -530z m2237 -20 l0 -550 -555 0
-555 0 -3 540 c-1 297 0 546 3 553 3 10 120 12 557 10 l553 -3 0 -550z m-6710
523 c3 -13 4 -259 3 -548 l-3 -525 -534 -3 c-421 -2 -536 0 -543 10 -9 15 -11
1032 -2 1066 l6 22 534 0 534 0 5 -22z m1109 -1084 c14 -6 16 -64 16 -555 l0
-549 -552 2 -553 3 -3 539 c-1 390 1 543 9 552 9 12 106 14 539 14 291 0 535
-3 544 -6z m2244 -556 l2 -558 -543 0 c-409 0 -546 3 -555 12 -9 9 -12 144
-12 544 0 472 2 534 16 548 14 14 74 16 552 14 l537 -3 3 -557z m2230 554 c10
-7 12 -124 10 -553 l-3 -544 -552 -3 -553 -2 0 549 c0 430 3 550 13 554 21 9
1071 7 1085 -1z m-3354 -1118 c14 -6 16 -63 16 -550 l0 -544 -22 -4 c-58 -12
-404 -17 -729 -10 l-359 7 0 547 c0 301 3 550 7 553 8 9 1066 9 1087 1z m2241
-11 c16 -15 17 -60 14 -543 -3 -427 -7 -530 -18 -544 -12 -14 -64 -16 -541
-16 -502 0 -528 1 -544 19 -15 17 -17 64 -16 547 0 486 1 530 17 542 13 9 138
12 544 12 481 0 529 -1 544 -17z m2223 11 l22 -6 0 -544 0 -544 -22 -4 c-58
-12 -404 -17 -729 -10 l-359 7 0 547 c0 301 3 550 7 553 8 9 1050 9 1081 1z
m-6701 -16 c18 -15 19 -1068 1 -1086 -9 -9 -140 -12 -529 -12 -457 0 -519 2
-533 16 -14 14 -16 76 -16 539 0 288 2 530 5 538 5 12 86 14 533 15 361 1 530
-2 539 -10z m1131 -1655 c2 -439 0 -553 -10 -553 -163 -4 -1082 1 -1088 5 -11
7 -14 1088 -3 1098 3 4 252 6 552 5 l546 -3 3 -552z m2230 1 l-3 -555 -544 1
c-299 0 -548 3 -552 6 -10 6 -12 1087 -2 1097 3 4 253 7 555 7 l548 0 -2 -556z
m2240 12 c1 -390 -1 -543 -9 -552 -16 -19 -1068 -21 -1087 -2 -9 9 -12 145
-12 548 0 295 3 540 7 543 3 4 252 6 552 5 l546 -3 3 -539z m2210 532 c9 -9
12 -142 12 -538 0 -499 -1 -528 -18 -544 -17 -15 -66 -16 -548 -14 l-529 3 -3
553 -2 552 538 0 c405 0 541 -3 550 -12z m-7800 -1638 c1 -289 0 -535 -3 -547
l-5 -23 -534 0 -534 0 -6 23 c-8 31 -8 1062 1 1070 3 4 248 6 542 5 l536 -3 3
-525z m2232 518 c3 -326 -1 -1072 -5 -1079 -4 -5 -224 -9 -549 -9 l-544 0 -6
23 c-8 29 -8 238 1 700 l6 377 549 0 c432 0 548 -3 548 -12z m2238 -508 c1
-283 0 -530 -3 -548 l-6 -32 -547 2 -547 3 -3 548 -2 547 552 -2 553 -3 3
-515z m2240 -27 l-3 -548 -550 0 -550 0 -3 548 -2 547 555 0 555 0 -2 -547z
m-5588 -1102 l0 -539 -32 -9 c-18 -4 -264 -7 -547 -6 -416 1 -515 4 -522 15
-10 15 -12 1061 -2 1071 3 4 253 7 555 7 l548 0 0 -539z m2230 1 c0 -326 -4
-542 -9 -548 -6 -5 -216 -7 -553 -4 l-543 5 -3 543 -2 542 555 0 555 0 0 -538z
m2238 -4 l2 -538 -22 -5 c-13 -3 -261 -4 -553 -3 l-530 3 -3 530 c-1 292 0
536 3 543 3 10 119 12 552 10 l548 -3 3 -537z"/>
<path d="M8950 590 c0 -333 3 -510 10 -510 7 0 10 177 10 510 0 333 -3 510
-10 510 -7 0 -10 -177 -10 -510z"/>
</g>
</svg>
