<?xml version="1.0" standalone="no"?>
<!DOCTYPE svg PUBLIC "-//W3C//DTD SVG 20010904//EN"
 "http://www.w3.org/TR/2001/REC-SVG-20010904/DTD/svg10.dtd">
<svg version="1.0" xmlns="http://www.w3.org/2000/svg"
 width="130.000000pt" height="256.000000pt" viewBox="0 0 130.000000 256.000000"
 preserveAspectRatio="xMidYMid meet">
<metadata>
Created by potrace 1.10, written by Peter Selinger 2001-2011
</metadata>
<g transform="translate(0.000000,256.000000) scale(0.050000,-0.050000)"
fill="#0000ff" stroke="none">
<path d="M1147 5106 c-125 -24 -182 -215 -92 -311 75 -79 59 -122 -62 -172
-799 -331 -1017 -1132 -514 -1883 78 -115 168 -561 123 -606 -27 -27 -126 33
-261 158 -134 125 -149 114 -94 -70 l26 -89 -75 -75 c-82 -82 -116 -191 -84
-264 18 -40 21 -37 34 31 16 86 36 103 104 86 l50 -12 -69 -85 c-474 -584
-174 -1461 590 -1728 1063 -371 2110 590 1667 1530 -55 117 -65 155 -49 196
24 64 -19 174 -103 260 l-61 63 31 116 c40 155 31 160 -86 47 -159 -153 -282
-195 -282 -96 0 217 61 433 170 598 402 609 406 1260 12 1730 -118 140 -122
163 -42 234 96 84 85 252 -21 307 -239 123 -521 -76 -384 -272 64 -91 12 -177
-110 -178 -121 -2 -175 90 -105 179 139 178 -45 359 -313 306z m209 -178 c12
-118 -165 -157 -204 -44 -28 79 14 120 116 112 75 -6 82 -11 88 -68z m636 22
c65 -99 -58 -191 -173 -129 -44 23 -53 117 -15 155 44 44 152 29 188 -26z
m-606 -383 c502 -253 784 -624 784 -1030 l0 -233 -108 -214 -108 -214 -102 15
c-56 8 -165 20 -242 27 l-140 12 -6 305 -5 305 170 0 171 0 0 150 0 150 -170
0 -170 0 0 190 0 190 -180 0 -180 0 0 -190 0 -190 -170 0 -170 0 0 -150 0
-150 170 0 170 0 0 -307 0 -307 -185 -13 c-102 -8 -213 -19 -247 -25 -60 -11
-63 -8 -145 155 -311 623 -119 1131 566 1491 192 101 168 98 297 33z m567 -56
c191 -214 369 -608 365 -811 l-1 -90 -25 101 c-67 278 -326 655 -521 760 -105
57 -86 149 31 149 41 0 79 -27 151 -109z m-595 -565 l-6 -193 169 -2 169 -1 0
-57 0 -58 -168 -2 -167 -3 4 -345 3 -345 -81 0 -82 0 14 352 13 352 -178 -7
-178 -6 0 60 0 59 170 2 170 1 -6 166 c-8 208 -3 221 87 221 l72 0 -5 -194z
m222 -1147 c323 -24 301 -3 267 -257 -33 -251 -12 -229 -179 -190 -164 38
-733 30 -844 -12 -86 -32 -83 -37 -114 203 -32 242 -41 230 179 246 88 6 193
14 231 18 141 13 195 12 460 -8z m-331 -521 c-26 -42 -227 -158 -316 -181
-168 -45 -254 77 -99 141 130 53 442 84 415 40z m400 -8 c172 -36 215 -71 162
-129 -73 -80 -235 -45 -451 99 l-90 60 120 0 c66 -1 183 -14 259 -30z m-253
-184 c211 -161 480 -167 705 -15 117 78 128 82 111 36 -8 -19 2 -43 23 -60 33
-25 32 -30 -15 -70 -228 -195 -598 -207 -851 -28 l-95 68 -62 -46 c-259 -194
-576 -203 -837 -26 -105 72 -113 87 -57 104 28 9 35 24 26 57 -11 43 -10 43
37 8 278 -203 653 -191 851 28 36 40 39 40 164 -56z m996 -215 c20 -81 1 -87
-59 -17 l-57 66 52 0 c38 0 54 -13 64 -49z m-1053 -25 c27 -18 97 -53 156 -77
l108 -44 -92 -14 c-61 -9 -116 -35 -162 -74 l-69 -61 -70 61 c-223 196 -550
13 -550 -307 0 -322 325 -504 550 -308 l69 61 78 -63 c146 -118 328 -100 451
43 177 207 115 522 -123 622 -63 27 -60 28 90 28 116 0 180 11 253 44 l99 44
58 -56 c323 -309 287 -903 -75 -1242 -849 -794 -2314 48 -1822 1047 101 204
143 239 247 202 205 -73 455 -46 628 68 104 68 114 70 176 26z m-203 -226 c36
-22 85 -73 108 -113 l43 -72 37 74 c140 271 517 149 519 -168 3 -326 -365
-465 -513 -194 -48 88 -52 89 -90 9 -94 -198 -362 -200 -475 -4 -160 280 113
625 371 468z"/>
<path d="M1106 2663 c-193 -73 -193 -72 2 -135 l172 -56 172 56 c195 63 195
66 -15 139 -181 63 -152 63 -331 -4z m304 -44 l60 -24 -93 -31 c-81 -26 -108
-26 -189 -3 l-96 26 79 36 c83 37 139 36 239 -4z"/>
<path d="M801 711 c-65 -78 359 -265 553 -245 192 20 515 194 460 248 -27 28
-42 24 -147 -38 -288 -171 -523 -164 -761 23 -61 49 -74 50 -105 12z"/>
<path d="M973 1403 c-44 -48 -42 -109 5 -151 55 -50 144 -34 180 31 63 112
-98 217 -185 120z"/>
<path d="M1451 1409 c-37 -38 -41 -131 -7 -165 34 -34 146 -30 176 6 92 111
-66 261 -169 159z"/>
</g>
</svg>
