<?xml version="1.0" standalone="no"?>
<!DOCTYPE svg PUBLIC "-//W3C//DTD SVG 20010904//EN"
 "http://www.w3.org/TR/2001/REC-SVG-20010904/DTD/svg10.dtd">
<svg version="1.0" xmlns="http://www.w3.org/2000/svg"
 width="900.000000pt" height="1047.000000pt" viewBox="0 0 900.000000 1047.000000"
 preserveAspectRatio="xMidYMid meet">
<metadata>
Created by potrace 1.10, written by Peter Selinger 2001-2011
</metadata>
<g transform="translate(0.000000,1047.000000) scale(0.100000,-0.100000)"
fill="#0000ff" stroke="none">
<path d="M4695 10454 c-7 -11 -37 -18 -104 -24 -75 -7 -98 -13 -117 -31 -29
-27 -30 -38 -3 -88 28 -54 20 -63 -49 -56 -65 6 -94 -8 -94 -47 0 -16 16 -202
22 -254 0 -1 7 -4 15 -8 9 -3 45 8 80 24 36 17 75 30 86 30 19 0 21 -4 16 -42
-4 -24 -9 -69 -13 -102 -5 -46 -12 -63 -33 -80 -85 -68 -151 -147 -186 -222
l-37 -79 4 -122 5 -123 -28 0 c-15 0 -30 4 -33 9 -3 5 -38 19 -78 31 -40 12
-84 27 -98 32 -49 20 -167 32 -300 33 -168 0 -263 -17 -353 -61 -16 -8 -33
-14 -37 -14 -32 0 -177 -106 -260 -190 -106 -106 -148 -170 -196 -299 -126
-335 4 -743 361 -1125 36 -39 37 -43 15 -85 -53 -106 -35 -293 35 -351 26 -21
45 -66 45 -104 0 -43 39 -129 80 -175 21 -24 30 -44 30 -69 0 -20 10 -65 22
-101 21 -61 50 -99 129 -168 16 -13 14 -20 -22 -79 -21 -35 -53 -94 -70 -131
-18 -38 -36 -76 -40 -85 -8 -16 -37 -100 -59 -173 -31 -103 -42 -217 -37 -396
5 -177 13 -248 38 -334 20 -69 49 -155 58 -173 4 -9 28 -57 52 -107 93 -190
256 -398 414 -525 36 -30 65 -61 65 -69 0 -9 -46 -55 -103 -103 -56 -48 -113
-98 -127 -110 -14 -13 -137 -120 -275 -238 -234 -201 -288 -251 -280 -258 1
-2 111 -4 243 -5 132 -1 244 -5 247 -9 12 -11 -57 -138 -84 -156 -42 -28 -259
-29 -406 -1 -66 12 -142 24 -168 27 -58 5 -123 -17 -157 -53 -13 -14 -32 -25
-42 -25 -44 0 -158 82 -243 176 -108 117 -191 164 -290 164 -69 0 -95 17 -95
62 0 14 -7 59 -15 99 -9 41 -20 97 -25 124 -5 28 -17 86 -25 130 -8 44 -29
154 -46 245 -16 91 -36 199 -44 240 -8 41 -21 113 -30 160 -9 47 -23 121 -31
165 -9 44 -20 105 -25 135 -4 30 -13 71 -19 90 -5 19 -10 55 -10 80 l0 46 53
18 c136 47 167 72 167 138 0 29 7 45 35 72 40 41 42 47 16 70 -18 17 -18 18 1
69 11 29 24 70 29 92 4 22 13 56 19 75 5 19 10 78 10 132 0 158 -47 248 -148
283 -63 21 -93 19 -165 -11 -105 -43 -149 -54 -228 -54 -89 0 -104 10 -94 64
5 25 2 43 -11 65 -18 30 -18 31 0 44 28 20 14 104 -18 117 -13 5 -26 16 -29
24 -5 12 -14 15 -32 11 -14 -3 -36 -7 -49 -10 -14 -3 -33 -20 -46 -42 -27 -46
-20 -104 16 -127 20 -14 22 -20 13 -40 -9 -18 -7 -30 6 -56 24 -46 13 -75 -34
-94 -61 -24 -159 -36 -232 -30 -86 8 -126 0 -182 -37 -139 -92 -110 -319 70
-556 47 -63 54 -77 48 -103 -6 -27 -4 -32 27 -44 38 -16 55 -34 82 -88 15 -31
26 -38 67 -48 27 -7 78 -10 115 -8 77 4 90 -7 99 -81 3 -25 12 -75 20 -111 17
-85 40 -203 61 -315 9 -49 22 -121 30 -160 7 -38 36 -194 64 -345 79 -432 80
-441 97 -518 8 -40 13 -78 10 -85 -2 -6 -31 -20 -63 -31 -146 -46 -196 -81
-218 -157 -18 -60 -5 -110 50 -191 l46 -66 -27 -36 c-14 -19 -33 -62 -41 -95
-15 -65 -11 -86 37 -181 14 -28 25 -73 29 -120 10 -121 52 -193 135 -231 47
-22 161 -25 231 -8 37 10 48 9 58 -2 7 -8 25 -88 40 -179 15 -91 33 -201 41
-245 8 -44 21 -118 29 -165 26 -152 46 -264 56 -315 5 -27 16 -93 25 -145 9
-52 23 -126 30 -165 31 -161 38 -203 42 -250 5 -53 8 -44 -87 -220 -20 -38
-74 -142 -120 -230 -46 -88 -101 -194 -123 -235 -64 -118 -66 -123 -61 -132 3
-4 119 -8 257 -8 139 0 258 -4 265 -8 7 -5 21 -24 32 -44 15 -29 17 -49 13
-114 -5 -68 -3 -86 16 -121 66 -131 204 -161 351 -78 21 13 373 15 2475 15
1893 0 2454 3 2463 12 8 8 12 59 12 163 0 104 4 155 12 163 9 9 70 12 215 12
l203 0 16 25 c12 18 14 35 9 62 -6 34 -235 500 -440 898 -78 151 -163 317
-388 757 l-121 238 24 70 c13 38 29 70 35 70 5 -1 26 -24 45 -51 35 -51 92
-88 137 -89 21 0 57 -36 68 -68 3 -9 21 -28 40 -41 29 -20 43 -23 82 -17 32 4
51 2 62 -8 32 -27 81 -37 123 -24 21 6 43 17 49 25 15 17 58 17 102 -2 58 -24
108 -19 154 14 51 37 81 86 89 144 5 38 2 55 -20 97 -25 47 -25 50 -7 50 11 0
67 -22 125 -50 58 -27 133 -59 166 -71 79 -27 188 -29 227 -4 36 23 79 72 98
113 9 17 22 32 30 32 8 0 15 5 15 10 0 6 -7 10 -15 10 -8 0 -15 5 -15 10 0 6
-10 15 -22 20 -13 6 -36 19 -53 30 -16 11 -37 23 -45 27 -8 4 -44 24 -80 46
-58 36 -379 221 -440 254 -14 8 -47 28 -75 44 -129 77 -97 71 -515 94 -74 4
-142 11 -150 15 -10 6 -15 26 -16 63 -1 37 -10 69 -25 96 -44 79 -99 100 -294
111 -158 9 -215 20 -356 67 -132 44 -127 38 -240 250 -18 35 -29 66 -25 70 4
5 137 9 294 10 158 2 293 3 300 3 32 0 55 -20 -580 527 -131 113 -238 212
-238 220 0 9 38 52 85 96 209 194 355 427 431 682 55 186 57 202 58 420 0 184
-2 221 -22 302 -82 339 -223 580 -476 819 l-100 94 26 28 c64 67 100 194 81
279 -10 43 -9 52 15 98 21 41 26 66 29 144 2 79 7 101 28 136 29 50 40 130 31
208 -6 42 -18 71 -52 122 l-45 67 38 66 c78 139 104 197 152 342 37 112 40
122 56 229 25 175 16 331 -29 457 -44 122 -170 276 -296 359 -105 69 -206 106
-348 125 -232 32 -549 -69 -799 -256 -40 -30 -77 -54 -82 -54 -5 0 -11 53 -13
118 -3 103 -6 124 -31 173 -45 93 -159 191 -255 220 -23 6 -48 19 -55 28 -18
21 -47 112 -47 147 0 25 2 26 33 20 87 -19 93 -19 122 6 l28 25 -11 74 c-6 41
-14 102 -18 137 -4 34 -10 64 -13 66 -4 3 -40 -10 -81 -29 -41 -18 -78 -31
-82 -28 -11 6 -10 56 1 85 4 13 11 42 15 66 l6 42 -42 0 c-28 0 -47 -5 -53
-16z m153 -858 c114 -72 146 -226 69 -329 -58 -76 -173 -111 -258 -77 -54 21
-115 76 -138 123 -27 55 -27 137 -2 193 20 45 92 109 131 117 58 12 158 -1
198 -27z m1222 -181 c174 -37 336 -161 419 -321 92 -178 57 -517 -84 -804 -74
-150 -89 -170 -131 -170 -18 0 -35 4 -39 9 -3 6 1 38 9 73 43 188 58 425 35
539 -6 30 -14 70 -18 89 -24 114 -116 232 -219 282 -64 31 -73 33 -177 32 -91
0 -119 -4 -165 -23 -91 -38 -183 -106 -280 -208 -206 -218 -371 -477 -451
-713 -17 -52 -33 -97 -35 -99 -2 -2 -24 -7 -50 -12 -34 -7 -51 -5 -62 3 -8 7
-50 65 -92 128 -182 270 -478 518 -760 636 -34 15 -69 19 -155 19 -107 -1
-112 -2 -187 -39 -168 -83 -268 -246 -268 -437 0 -130 62 -370 139 -542 35
-79 37 -92 15 -101 -24 -9 -54 14 -134 105 -66 74 -180 236 -180 255 0 4 -6
15 -13 23 -15 17 -63 134 -93 221 -25 74 -27 290 -3 341 72 153 87 177 159
250 81 82 171 134 280 160 91 22 317 17 425 -11 221 -55 380 -146 551 -315
107 -106 156 -166 247 -307 31 -47 61 -90 68 -94 20 -12 44 28 83 143 32 93
109 262 149 328 236 390 675 632 1017 560z m-1178 -431 c8 -8 -75 -147 -91
-152 -15 -5 -122 108 -115 120 3 4 20 8 37 9 18 0 50 6 72 14 43 14 88 18 97
9z m1007 -163 c116 -60 175 -239 151 -464 -16 -156 -27 -196 -59 -208 -33 -13
-181 -1 -186 15 -1 6 -13 44 -25 84 -12 41 -20 75 -18 78 3 2 26 -10 52 -28
48 -31 49 -31 80 -14 102 55 131 230 46 276 -21 11 -58 -3 -102 -39 -10 -7
-25 -10 -34 -7 -15 6 -11 13 24 49 54 55 57 95 10 129 -28 19 -45 23 -110 23
-72 0 -79 -2 -108 -30 -18 -16 -36 -40 -41 -52 -6 -17 -17 -23 -39 -23 -77 0
-159 -138 -130 -219 26 -74 53 -85 120 -51 22 11 46 20 55 20 28 0 16 -47 -29
-107 -24 -33 -47 -69 -50 -81 -10 -29 -57 -41 -203 -48 -103 -6 -123 -5 -128
8 -7 18 16 90 61 186 19 41 34 75 34 77 0 15 86 146 142 217 96 121 205 207
291 229 50 13 152 2 196 -20z m-1937 -245 c166 -44 415 -244 552 -444 27 -39
46 -77 43 -85 -3 -9 -40 -21 -94 -32 -48 -9 -101 -21 -117 -26 -52 -16 -86
-11 -95 14 -11 28 -53 71 -97 98 -48 29 -44 49 9 49 63 1 117 55 117 118 0 34
-28 97 -58 132 -23 28 -92 27 -117 0 -28 -31 -49 -26 -41 11 8 43 -7 65 -58
84 -37 14 -51 15 -78 6 -89 -31 -161 -116 -151 -178 4 -27 0 -37 -30 -66 -20
-18 -39 -46 -43 -62 -8 -34 9 -107 34 -140 19 -27 63 -55 84 -55 17 0 98 74
98 90 0 5 6 10 14 10 19 0 26 -35 20 -105 -9 -106 -7 -102 -83 -125 -109 -32
-113 -31 -149 48 -44 99 -69 176 -88 277 -33 180 17 325 130 375 50 23 127 25
198 6z m1543 -1502 c103 -17 245 -55 310 -83 341 -145 571 -340 748 -634 26
-43 47 -80 47 -83 0 -5 28 -70 50 -119 12 -26 26 -85 51 -215 30 -153 20 -307
-31 -510 -7 -25 -16 -54 -20 -65 -5 -11 -18 -41 -29 -67 -12 -26 -21 -49 -21
-52 0 -13 -118 -198 -162 -253 -75 -94 -233 -239 -333 -306 -174 -115 -368
-193 -595 -239 -99 -20 -144 -23 -330 -23 -235 1 -308 10 -500 66 -119 35
-136 42 -275 111 -223 110 -431 291 -556 483 -170 260 -241 575 -194 851 40
233 114 400 261 589 138 178 246 255 545 389 110 49 350 129 474 158 125 28
397 29 560 2z m-3926 -470 c1 -40 -9 -49 -26 -24 -8 11 -22 20 -31 20 -12 1
-8 6 11 16 16 9 27 23 28 37 0 21 1 21 9 2 5 -11 9 -34 9 -51z m574 -189 c42
-17 79 -63 98 -120 26 -80 11 -258 -33 -380 -30 -85 -53 -135 -61 -135 -5 0
-24 -16 -42 -35 -21 -23 -42 -37 -61 -38 -26 -2 -29 1 -29 28 0 29 -11 41 -55
61 -8 4 -22 16 -31 27 -18 22 -39 15 -39 -13 0 -11 -9 -24 -20 -30 -26 -14
-25 -28 2 -32 36 -5 31 -25 -11 -41 -29 -12 -47 -14 -74 -6 -43 12 -65 35 -49
51 20 20 14 25 -32 25 -45 0 -81 17 -70 34 3 5 1 9 -5 9 -36 0 -20 -55 19 -69
27 -9 29 -12 19 -33 -17 -38 -59 -62 -102 -61 -49 2 -56 9 -31 29 15 12 16 17
5 21 -7 3 -23 16 -34 29 -26 30 -43 30 -51 1 -3 -13 -18 -36 -32 -50 -28 -28
-26 -30 19 -27 15 1 27 -3 27 -9 0 -6 -11 -11 -24 -11 -16 0 -27 -7 -31 -20
-9 -28 -49 -36 -80 -16 -13 9 -32 16 -42 16 -31 0 -59 26 -132 124 -78 103
-109 159 -140 253 -33 99 -25 167 28 227 49 56 185 78 215 34 11 -15 19 -18
28 -11 7 5 41 17 74 27 72 19 142 9 210 -30 l40 -24 40 41 c58 60 106 82 198
89 66 6 81 10 96 30 34 45 128 62 193 35z m-153 -680 c0 -9 -9 -15 -25 -15
-16 0 -25 6 -25 15 0 9 9 15 25 15 16 0 25 -6 25 -15z m404 -1873 c81 -22 172
-111 207 -204 32 -86 49 -144 49 -166 0 -30 30 -82 47 -82 10 0 13 22 13 85 0
59 4 85 12 85 16 0 98 -40 98 -48 0 -4 2 -72 5 -152 7 -259 8 -450 1 -457 -4
-4 -13 -3 -20 2 -31 23 -99 67 -110 71 -8 3 -35 -14 -62 -37 -50 -43 -153
-113 -158 -107 -16 19 -28 60 -32 116 -3 37 -12 81 -20 99 -20 44 -20 137 -1
165 8 13 29 39 47 58 17 19 40 52 51 72 21 40 25 103 9 113 -21 13 -54 -21
-64 -66 -8 -32 -16 -45 -31 -47 -17 -2 -23 8 -38 60 -11 35 -25 78 -33 96 -8
18 -14 46 -14 62 0 36 -13 45 -35 23 -12 -11 -15 -25 -11 -47 4 -17 9 -58 12
-91 2 -33 12 -93 20 -133 22 -99 15 -167 -22 -222 -30 -45 -75 -78 -107 -79
-27 -1 -73 50 -86 95 -6 21 -18 73 -26 114 -8 41 -21 100 -29 130 -49 191 -48
185 -29 263 9 39 27 88 39 108 29 46 101 108 134 115 14 3 39 9 55 14 33 10
69 7 129 -8z m3255 -75 c6 -8 9 -16 7 -18 -5 -5 25 -254 44 -364 28 -168 70
-344 115 -488 8 -26 15 -54 15 -61 0 -8 7 -27 15 -42 8 -16 15 -37 15 -47 0
-9 4 -25 9 -35 5 -9 24 -57 41 -107 111 -316 246 -565 461 -846 142 -187 433
-465 599 -574 161 -105 339 -274 423 -401 26 -40 47 -76 47 -80 0 -5 6 -20 13
-34 26 -50 48 -156 45 -215 l-3 -60 -2270 0 -2270 0 -3 45 c-7 98 39 244 111
353 66 100 200 232 362 355 6 4 28 19 50 32 22 13 45 28 50 32 6 5 47 38 92
73 146 116 421 405 514 540 19 28 36 52 39 55 6 6 43 61 50 75 3 6 21 35 41
65 51 79 79 129 147 265 77 153 99 207 157 385 26 80 51 153 56 162 5 10 9 24
9 32 0 7 7 38 16 67 42 146 60 223 75 314 5 33 13 73 18 90 10 31 20 102 46
308 8 66 18 123 21 128 3 5 183 9 418 9 334 0 416 -3 425 -13z m-3657 -22 c2
-3 -2 -37 -10 -77 -15 -74 -14 -81 14 -267 l5 -34 -58 7 c-32 4 -93 11 -135
14 -76 7 -78 8 -128 57 -46 45 -50 53 -50 96 0 62 43 122 108 151 90 39 237
70 254 53z m4130 -84 c34 -15 92 -42 128 -58 36 -17 85 -40 110 -51 25 -11 83
-38 130 -60 47 -21 96 -43 109 -47 14 -4 45 -18 69 -31 25 -13 49 -24 54 -24
6 0 24 -6 41 -14 132 -57 343 -106 465 -107 185 -1 229 -23 219 -111 -3 -25
-10 -55 -15 -65 -5 -10 -15 -38 -21 -63 -6 -25 -18 -67 -27 -95 -8 -27 -21
-75 -30 -105 -8 -30 -19 -68 -23 -85 -5 -16 -19 -66 -31 -110 -12 -44 -26 -96
-31 -115 -15 -65 -46 -72 -190 -40 -139 31 -407 104 -439 120 -9 4 -31 11 -50
15 -36 7 -96 26 -310 95 -176 57 -194 79 -224 265 -16 97 -36 430 -36 606 0
127 -1 127 102 80z m-1662 -45 c0 -14 -52 -222 -86 -341 -9 -33 -19 -71 -22
-85 -2 -14 -8 -29 -12 -35 -4 -5 -11 -25 -15 -43 -4 -18 -13 -45 -21 -60 -8
-15 -14 -34 -14 -43 0 -9 -3 -19 -7 -23 -4 -4 -13 -26 -19 -49 -7 -23 -20 -67
-29 -97 -9 -30 -20 -71 -24 -90 l-6 -35 -245 -8 c-135 -4 -404 -6 -597 -5
-338 3 -353 4 -373 23 -19 19 -20 38 -26 387 -9 439 -12 423 89 415 34 -3 103
-13 152 -23 180 -35 503 -16 783 45 75 16 190 38 282 55 47 8 94 17 105 19 46
10 85 7 85 -7z m-2453 -318 c13 -16 23 -57 32 -133 4 -33 11 -68 15 -77 5 -12
3 -19 -5 -22 -8 -2 -38 -11 -68 -20 -29 -9 -71 -16 -92 -16 -21 0 -41 -4 -44
-10 -12 -20 -87 -11 -121 15 -61 46 -64 53 -64 118 0 71 23 125 61 144 33 18
273 18 286 1z m5923 -254 c19 -3 71 -9 115 -14 76 -7 86 -10 200 -80 66 -40
170 -100 230 -134 149 -84 133 -75 288 -166 75 -45 137 -83 137 -86 0 -14 -31
-61 -52 -80 -69 -63 -139 -52 -388 63 -41 19 -95 44 -120 55 -25 11 -55 25
-68 31 -16 8 -32 7 -56 -1 -18 -7 -46 -12 -62 -12 -17 0 -38 -6 -48 -13 -18
-13 -17 -15 9 -35 15 -12 37 -22 49 -22 47 0 146 -90 146 -133 0 -29 -42 -108
-66 -124 -32 -20 -103 -20 -145 1 -43 22 -76 20 -102 -5 -50 -48 -96 -50 -136
-7 l-29 31 -36 -17 c-50 -23 -83 -7 -113 56 -21 44 -26 48 -88 67 -70 22 -110
57 -152 133 -17 32 -19 45 -11 71 23 74 40 135 49 172 5 22 13 49 18 60 5 11
14 39 20 63 26 100 35 127 45 135 12 7 305 0 366 -9z m-5812 -74 c47 -44 13
-138 -73 -199 -45 -33 -56 -36 -130 -39 -51 -2 -89 2 -105 10 -39 21 -84 93
-84 134 0 61 13 67 249 102 97 15 119 14 143 -8z m640 -106 c89 -38 86 -34 95
-108 4 -37 15 -78 25 -92 21 -29 87 -63 139 -71 78 -12 79 -14 30 -106 -24
-45 -77 -145 -117 -222 -40 -77 -95 -183 -123 -235 -28 -52 -69 -131 -92 -175
-23 -43 -47 -81 -53 -83 -11 -3 -42 86 -42 124 0 12 -6 52 -14 90 -15 73 -26
127 -50 264 -9 47 -27 146 -41 220 -13 74 -27 160 -31 190 l-6 55 59 42 c32
24 76 61 98 83 43 44 66 49 123 24z"/>
<path d="M5660 6844 c-83 -8 -195 -37 -217 -57 -13 -11 -23 -31 -23 -43 0 -23
46 -68 60 -59 4 3 65 14 136 26 147 24 196 21 305 -16 90 -30 103 -31 129 -5
27 27 25 44 -7 79 -50 54 -228 89 -383 75z"/>
<path d="M4610 6684 c-125 -29 -262 -103 -362 -193 -47 -42 -54 -63 -32 -96
24 -36 62 -33 119 11 61 46 165 109 212 129 21 9 74 23 118 32 95 18 125 35
125 68 0 60 -63 77 -180 49z"/>
<path d="M5647 6537 c-63 -20 -100 -64 -154 -182 -26 -58 -26 -307 1 -380 32
-87 65 -149 107 -198 55 -63 103 -87 177 -87 50 0 66 5 101 30 40 30 111 126
111 152 0 7 7 31 15 53 8 24 14 78 14 135 1 168 -52 315 -148 410 -76 75 -137
94 -224 67z m150 -102 c48 -41 90 -107 118 -185 30 -82 27 -295 -4 -362 -28
-62 -63 -102 -101 -118 -96 -40 -215 93 -254 284 -20 99 -20 150 1 234 41 168
143 230 240 147z"/>
<path d="M5730 6233 c-74 -27 -114 -155 -77 -244 25 -60 64 -89 121 -89 43 0
53 4 86 38 30 30 39 47 45 89 8 61 0 106 -26 149 -30 49 -99 75 -149 57z m95
-143 c41 -45 -18 -110 -70 -76 -26 17 -32 45 -15 77 14 25 62 25 85 -1z"/>
<path d="M4622 6363 c-124 -68 -190 -245 -164 -443 29 -213 124 -360 260 -401
37 -11 50 -10 95 4 118 37 189 174 190 367 0 207 -80 388 -207 460 -60 35
-124 39 -174 13z m137 -77 c61 -32 127 -137 152 -242 6 -27 12 -99 13 -160 1
-107 0 -112 -34 -180 -42 -84 -86 -118 -141 -111 -110 14 -206 180 -217 373
-12 231 98 386 227 320z"/>
<path d="M4708 6086 c-73 -32 -110 -153 -73 -237 41 -95 114 -124 187 -74 100
68 87 266 -21 311 -39 16 -57 17 -93 0z m102 -136 c38 -38 15 -90 -41 -90 -35
0 -54 35 -39 74 15 39 50 46 80 16z"/>
<path d="M5856 5411 c-10 -15 3 -37 34 -60 31 -22 36 -39 21 -69 -4 -9 -17
-35 -27 -57 -10 -22 -45 -64 -76 -95 -48 -47 -80 -68 -169 -111 -97 -46 -345
-59 -474 -25 -134 35 -238 95 -308 179 l-40 47 21 23 c26 27 28 52 6 61 -28
11 -37 7 -84 -45 -36 -40 -54 -51 -80 -52 -47 -3 -63 -32 -31 -58 15 -12 33
-18 46 -15 16 4 38 -11 95 -67 151 -147 336 -217 575 -217 198 0 340 42 470
140 70 53 80 62 120 115 38 50 60 92 69 128 3 15 11 27 17 27 5 0 21 11 35 25
21 21 23 29 14 40 -7 8 -28 15 -47 15 -26 0 -47 10 -82 40 -45 38 -92 52 -105
31z"/>
<path d="M1670 5851 c-17 -32 -12 -41 23 -40 17 1 43 -2 56 -6 19 -7 22 -5 19
11 -2 11 -13 20 -28 22 -14 2 -29 10 -33 18 -11 19 -24 17 -37 -5z"/>
</g>
</svg>
