 <svg version="1.0" xmlns="http://www.w3.org/2000/svg"  width="300.000000pt" height="349.000000pt" viewBox="0 0 300.000000 349.000000"  preserveAspectRatio="xMidYMid meet">  <g transform="translate(0.000000,349.000000) scale(0.100000,-0.100000)" fill="#000000" stroke="none"> <path d="M1538 3481 c-54 -8 -67 -16 -50 -33 17 -17 15 -31 -3 -24 -32 12 -42 -3 -37 -57 2 -29 6 -54 8 -56 2 -2 15 4 28 13 14 9 28 16 31 16 13 0 -9 -76 -26 -87 -39 -28 -62 -82 -57 -133 l5 -49 -28 14 c-15 8 -59 20 -97 27 -88 15 -162 0 -229 -45 -66 -45 -100 -92 -118 -164 -14 -56 -14 -67 0 -132 17 -72 68 -164 117 -209 24 -22 25 -25 12 -51 -16 -32 -9 -84 12 -102 8 -6 14 -22 14 -34 0 -12 9 -34 20 -48 11 -14 20 -33 20 -42 0 -24 27 -72 44 -78 12 -5 9 -16 -14 -60 -90 -166 -75 -361 42 -517 22 -30 58 -68 79 -85 21 -16 38 -32 38 -35 0 -3 -17 -18 -39 -35 -21 -16 -83 -68 -138 -115 l-100 -85 89 -3 89 -3 -15 -29 c-14 -27 -20 -30 -64 -30 -26 0 -73 5 -104 11 -48 10 -60 9 -82 -5 -23 -15 -28 -15 -55 -1 -16 8 -37 26 -45 38 -20 31 -87 67 -111 61 -19 -5 -22 3 -39 103 -10 59 -31 173 -46 252 -16 79 -29 149 -29 156 0 7 18 19 40 28 29 11 38 20 34 31 -3 8 3 22 15 32 14 12 17 20 9 25 -8 5 -8 16 1 39 14 43 14 112 -1 145 -14 31 -50 42 -92 27 -17 -5 -48 -13 -68 -17 -36 -6 -38 -5 -39 22 -1 15 0 41 1 57 1 17 -2 26 -8 22 -6 -3 -12 -1 -14 5 -2 5 -11 7 -21 3 -21 -8 -35 -56 -19 -62 7 -2 9 -8 6 -13 -3 -6 0 -16 6 -24 10 -12 7 -17 -15 -25 -14 -5 -47 -10 -71 -10 -25 0 -54 -5 -65 -11 -46 -24 -42 -97 11 -174 15 -22 25 -46 23 -52 -3 -7 2 -13 10 -13 8 0 22 -12 32 -26 14 -21 23 -25 51 -22 24 3 35 0 39 -12 5 -16 95 -508 95 -520 0 -4 -18 -14 -40 -23 -24 -9 -44 -26 -52 -41 -10 -23 -8 -31 10 -55 20 -28 20 -31 5 -61 -14 -30 -14 -35 1 -66 9 -19 16 -45 16 -58 0 -13 10 -36 22 -51 19 -25 26 -27 75 -23 52 5 53 4 53 -21 0 -14 18 -128 41 -252 l40 -227 -46 -93 c-26 -51 -58 -110 -71 -131 l-24 -38 94 0 c86 0 95 -2 101 -20 3 -11 3 -25 0 -31 -4 -5 -2 -23 5 -39 15 -35 59 -54 97 -39 16 6 333 9 849 9 l824 0 0 60 0 60 74 0 c50 0 76 4 79 13 3 6 -69 156 -158 332 -139 273 -161 323 -153 342 l11 22 19 -24 c11 -14 26 -25 35 -25 8 0 24 -12 35 -26 12 -15 26 -23 35 -19 9 3 22 0 30 -6 10 -9 20 -9 38 -1 13 6 39 8 58 5 29 -4 37 -1 55 22 27 35 27 43 0 73 -22 22 -20 22 42 -7 83 -40 131 -41 160 -4 l21 28 -21 17 c-12 9 -76 48 -143 87 -121 69 -122 69 -218 76 -92 7 -96 8 -92 30 7 34 -39 65 -95 65 -25 0 -72 8 -105 17 -53 14 -63 22 -89 62 l-29 46 111 3 110 3 -73 62 c-41 34 -107 91 -148 125 l-74 64 57 58 c95 97 138 207 138 349 -1 139 -63 281 -161 364 l-37 32 20 25 c13 16 18 36 17 60 -2 19 0 41 4 48 5 6 9 26 11 44 1 18 8 50 15 71 11 33 10 43 -7 77 l-19 39 33 67 c61 126 68 246 19 330 -51 86 -124 127 -230 127 -79 0 -152 -25 -220 -74 l-40 -30 -5 50 c-6 55 -44 107 -88 118 -20 5 -42 37 -42 62 0 4 12 7 28 6 26 0 27 2 25 48 -1 27 -4 51 -7 54 -3 3 -17 -2 -32 -12 l-27 -17 7 36 c4 20 3 35 -1 35 -4 -1 -29 -5 -55 -8z m35 -46 c-6 -35 -5 -35 21 -25 40 15 46 13 46 -16 0 -25 -3 -26 -34 -21 l-34 5 9 -36 c12 -50 12 -49 -16 -54 -24 -5 -25 -3 -25 38 0 43 -1 43 -26 34 -38 -15 -44 -13 -44 18 0 26 2 28 35 24 38 -5 42 3 20 32 -17 23 -5 36 32 36 19 0 21 -4 16 -35z m71 -179 c48 -20 66 -51 66 -113 0 -68 -33 -109 -99 -124 -39 -9 -50 -7 -90 14 -36 18 -49 32 -60 63 -19 53 -9 89 38 136 43 43 84 49 145 24z m462 -84 c143 -73 172 -229 78 -420 -32 -65 -34 -74 -20 -88 24 -23 30 -61 15 -95 -7 -17 -14 -43 -15 -58 -13 -121 -18 -142 -39 -165 -13 -15 -31 -23 -41 -20 -11 2 -66 15 -124 30 -58 14 -141 28 -185 31 -104 6 -212 -24 -390 -112 -122 -59 -132 -62 -156 -49 -25 13 -54 68 -44 84 2 4 -4 15 -15 25 -11 10 -20 29 -20 42 0 14 -9 36 -20 50 -22 29 -26 74 -8 102 10 16 5 26 -33 68 -88 98 -126 221 -99 318 17 60 81 132 145 161 64 30 149 31 241 3 84 -26 104 -38 176 -108 32 -30 59 -53 61 -50 2 2 20 32 41 66 54 91 136 154 251 196 62 22 145 17 201 -11z m-479 -196 l-22 -34 -23 21 -23 21 38 12 c21 7 41 12 45 13 4 1 -3 -14 -15 -33z m269 -627 c148 -45 246 -125 309 -251 117 -237 -14 -503 -295 -598 -90 -31 -256 -32 -351 -1 -133 42 -268 160 -310 271 -30 77 -36 191 -14 266 30 102 107 199 195 244 173 88 328 111 466 69z m257 -76 c67 -65 129 -175 144 -253 29 -158 -12 -296 -125 -424 -67 -75 -68 -80 -15 -126 133 -116 173 -153 173 -161 0 -5 -23 -9 -52 -9 -33 0 -58 -6 -69 -16 -17 -15 -21 -15 -51 -1 -33 15 -93 12 -82 -4 3 -5 23 -9 45 -9 23 0 39 -5 39 -12 0 -6 19 -29 43 -51 35 -33 38 -38 17 -32 -14 4 -34 16 -44 27 -27 28 -124 70 -155 66 -35 -4 -43 -47 -30 -178 13 -144 21 -164 72 -190 23 -11 51 -27 63 -33 12 -7 80 -28 152 -47 l130 -35 152 -298 c84 -164 151 -299 149 -301 -2 -2 -23 -1 -45 2 -41 4 -41 5 -57 60 -27 94 -70 142 -259 290 -69 53 -169 178 -214 266 -51 99 -72 105 -26 6 59 -122 164 -245 294 -341 101 -76 188 -185 188 -236 0 -10 7 -29 16 -42 13 -18 14 -27 5 -44 -6 -12 -12 -38 -14 -57 l-3 -35 -802 -2 c-778 -2 -802 -2 -802 17 0 10 -2 25 -5 32 -5 12 105 14 752 13 417 -1 766 3 776 7 26 13 22 74 -10 137 -32 63 -70 104 -139 151 -27 19 -68 53 -91 76 -24 23 -43 39 -43 36 0 -4 -8 5 -17 18 -10 14 -16 30 -15 35 2 6 1 7 -3 3 -8 -7 -32 12 -31 24 1 4 -9 15 -22 23 -22 16 -68 93 -64 107 1 5 -2 8 -7 8 -12 0 -55 94 -87 189 -27 78 -54 214 -54 269 0 18 -7 46 -15 62 l-16 30 -147 0 c-81 0 -152 -4 -158 -8 -7 -4 -17 -48 -23 -97 -17 -138 -81 -362 -101 -350 -5 3 -6 -3 -3 -13 2 -10 -7 -34 -21 -55 -14 -21 -26 -41 -26 -45 0 -24 -123 -176 -134 -165 -3 3 -6 1 -6 -6 0 -19 -79 -90 -107 -97 -16 -4 -21 -9 -13 -14 7 -4 3 -13 -14 -24 -14 -9 -26 -13 -26 -10 0 4 -8 -3 -19 -14 -10 -12 -22 -22 -27 -22 -5 0 -20 -18 -34 -39 -13 -22 -27 -38 -30 -36 -4 2 -7 -1 -7 -8 0 -7 -10 -32 -22 -57 -16 -32 -21 -37 -16 -17 4 19 2 26 -5 22 -5 -3 -10 0 -11 7 0 7 -2 22 -4 33 -2 11 -11 70 -21 130 l-17 110 94 177 93 177 151 3 c82 2 151 3 153 2 5 -2 -79 -148 -112 -192 -43 -59 -133 -145 -211 -204 -66 -49 -140 -126 -131 -135 3 -3 31 19 63 50 32 30 86 76 121 102 59 45 182 172 191 198 2 7 14 26 26 42 32 43 65 115 65 142 0 13 4 23 8 23 5 0 15 19 22 43 11 36 14 39 21 22 6 -14 7 -11 3 12 -3 21 0 45 10 64 9 18 16 39 16 49 0 9 4 20 9 25 13 15 22 114 10 121 -6 4 -6 11 2 20 6 8 9 17 5 21 -3 3 -6 2 -6 -4 0 -5 -47 -18 -105 -28 -58 -10 -110 -24 -116 -31 -6 -8 -23 -14 -38 -13 -26 1 -26 1 6 15 17 7 34 23 38 34 6 18 15 20 100 20 52 0 97 4 100 10 4 6 -9 10 -32 11 -21 1 -58 2 -83 4 -25 1 -60 -5 -79 -13 -30 -14 -34 -14 -43 1 -6 12 -22 17 -53 17 -40 0 -61 13 -36 22 9 3 132 110 178 155 13 12 23 26 23 31 0 5 -25 36 -56 68 -30 33 -69 79 -85 103 -66 100 -87 268 -48 384 24 72 64 137 84 137 20 0 20 -1 -22 -88 -61 -128 -59 -266 7 -393 99 -192 365 -305 597 -256 114 25 228 84 293 153 30 32 59 58 63 56 5 -1 6 2 3 7 -3 5 5 32 19 59 14 27 25 55 25 62 0 6 4 9 8 6 5 -3 9 45 8 107 -1 108 -2 115 -39 192 -29 60 -54 95 -102 140 -60 58 -62 61 -37 63 18 1 37 -9 65 -35z m-1616 -77 c-8 -9 -15 -10 -23 -2 -15 15 6 38 23 24 9 -7 9 -13 0 -22z m3 -36 c0 -5 -4 -10 -10 -10 -5 0 -10 5 -10 10 0 6 5 10 10 10 6 0 10 -4 10 -10z m198 -32 c19 -25 22 -74 7 -133 -9 -33 -20 -62 -24 -65 -5 -3 -8 -16 -7 -29 1 -21 -7 -28 -49 -44 -27 -10 -86 -21 -131 -24 -68 -5 -82 -3 -87 10 -4 11 -2 14 8 11 7 -3 24 0 37 7 13 7 27 12 32 11 4 -2 18 3 30 11 13 8 44 12 83 11 36 -2 65 2 69 8 4 6 0 8 -12 4 -11 -3 -26 -1 -34 5 -13 9 -12 10 3 5 22 -7 47 45 47 100 0 38 -26 104 -41 104 -5 0 -9 5 -9 10 0 14 66 12 78 -2z m-183 -8 c3 -6 -1 -13 -10 -16 -19 -8 -30 0 -20 15 8 14 22 14 30 1z m114 -26 c16 -20 21 -41 21 -83 0 -69 -10 -89 -33 -67 -15 15 -17 15 -27 -3 -13 -26 -13 -34 3 -25 9 5 9 4 1 -6 -7 -7 -21 -9 -34 -5 -16 5 -19 9 -10 15 7 4 10 15 7 24 -9 23 -37 32 -48 15 -14 -22 -11 -39 7 -39 14 0 14 -3 4 -15 -7 -8 -22 -15 -34 -14 -11 0 -15 3 -9 6 10 3 9 9 -3 21 -15 14 -17 14 -26 -1 -14 -26 -23 -21 -46 27 -23 46 -28 96 -12 126 13 25 56 33 89 17 25 -13 30 -12 55 10 36 30 69 29 95 -3z m-255 -21 c-11 -25 -7 -98 7 -125 22 -44 51 -69 66 -57 8 7 13 8 13 1 0 -14 -28 -23 -55 -16 -27 7 -77 74 -94 127 -11 32 -10 41 3 62 20 30 74 37 60 8z m173 -139 c-3 -3 -12 -4 -19 -1 -8 3 -5 6 6 6 11 1 17 -2 13 -5z m89 -334 c24 -124 45 -239 48 -255 6 -28 3 -31 -35 -43 -23 -7 -42 -12 -43 -10 -2 2 -22 109 -45 238 -24 129 -45 247 -48 262 -5 23 -2 27 23 31 58 9 55 15 100 -223z m137 -314 c39 -16 63 -49 72 -100 9 -46 30 -62 23 -17 -5 31 5 38 30 23 12 -8 28 -222 17 -222 -3 0 -17 7 -30 16 -23 15 -26 15 -56 -10 -17 -14 -34 -26 -39 -26 -4 0 -11 30 -15 66 -6 57 -4 69 13 87 27 31 35 57 17 57 -8 0 -15 -9 -15 -20 0 -36 -20 -21 -32 25 -7 25 -16 45 -21 45 -5 0 -7 -10 -3 -22 3 -13 9 -48 12 -78 5 -46 3 -59 -14 -80 -33 -40 -54 -18 -75 81 -23 106 -13 153 36 174 40 18 41 18 80 1z m-133 -20 c0 -3 -4 -16 -10 -31 -6 -16 -7 -41 -1 -66 l9 -41 -51 7 c-54 8 -76 25 -77 62 0 25 8 32 70 55 49 18 60 20 60 14z m1223 -68 c15 -165 92 -392 179 -525 59 -90 160 -198 238 -256 121 -88 190 -178 190 -249 l0 -28 -764 0 -765 0 6 37 c13 84 58 141 185 236 118 88 211 196 285 327 60 107 143 401 143 507 l0 23 149 0 148 0 6 -72z m252 -12 c131 -60 215 -86 282 -86 31 0 45 -5 50 -16 3 -9 -9 -70 -28 -136 l-33 -120 -50 6 c-28 3 -114 25 -191 50 -121 38 -142 47 -153 70 -8 17 -16 81 -19 163 -5 115 -4 135 8 131 8 -3 68 -31 134 -62z m-655 37 c-1 -16 -39 -152 -66 -231 l-27 -82 -206 2 -206 3 0 135 0 135 40 -2 c129 -8 227 -2 330 21 126 27 135 29 135 19z m-824 -116 c3 -3 9 -21 14 -41 l8 -35 -50 -10 c-64 -14 -88 -3 -88 42 0 18 5 38 12 45 12 12 92 11 104 -1z m2168 -163 c116 -67 134 -80 125 -95 -17 -32 -46 -31 -131 3 -59 24 -92 32 -113 28 l-30 -6 25 -8 c32 -11 60 -35 60 -53 0 -7 -9 -22 -20 -33 -16 -16 -25 -18 -45 -10 -18 7 -31 6 -44 -2 -11 -6 -26 -8 -37 -3 -11 4 -27 7 -36 6 -9 -1 -22 7 -27 18 -6 11 -21 23 -33 27 -23 7 -57 42 -58 59 0 6 10 43 22 84 l22 74 93 -6 92 -5 135 -78z m-2125 52 c15 -18 1 -50 -29 -66 -45 -24 -110 0 -110 41 0 13 10 20 38 24 20 4 42 8 47 10 23 8 43 4 54 -9z m100 -146 c21 -128 39 -224 97 -525 14 -72 26 -136 27 -144 1 -8 -15 -19 -41 -26 -40 -12 -42 -12 -46 9 -3 11 -16 93 -31 181 -14 88 -42 253 -63 367 l-38 207 31 40 c16 21 33 36 36 33 3 -4 16 -68 28 -142z m115 110 c18 -7 26 -17 26 -34 0 -26 33 -56 61 -56 13 0 0 -32 -55 -140 -39 -77 -74 -140 -78 -140 -5 0 -8 12 -8 28 0 15 -11 87 -24 161 l-24 133 32 29 c35 32 36 32 70 19z m151 -80 c-3 -5 -13 -10 -21 -10 -8 0 -14 5 -14 10 0 6 9 10 21 10 11 0 17 -4 14 -10z m1355 -74 c0 -11 -19 -15 -25 -6 -3 5 1 10 9 10 9 0 16 -2 16 -4z m-1543 -268 c-3 -8 -6 -5 -6 6 -1 11 2 17 5 13 3 -3 4 -12 1 -19z m-90 -190 c-3 -8 -6 -5 -6 6 -1 11 2 17 5 13 3 -3 4 -12 1 -19z m23 -149 c0 -4 -19 -9 -42 -12 -24 -2 -51 -8 -60 -12 -11 -4 -18 -3 -18 5 0 6 4 9 8 6 5 -3 26 26 48 63 l39 69 12 -56 c7 -32 12 -60 13 -63z m137 -56 c-3 -10 -5 -4 -5 12 0 17 2 24 5 18 2 -7 2 -21 0 -30z m-15 -25 c16 -13 22 -29 19 -55 0 -7 -12 -20 -26 -29 -23 -15 -27 -15 -50 0 -29 19 -32 51 -8 78 19 21 43 23 65 6z"></path> <path d="M1542 3225 c-43 -19 -66 -70 -51 -113 23 -66 109 -84 160 -33 47 48 38 116 -21 146 -35 18 -46 18 -88 0z m86 -32 c12 -10 24 -30 28 -45 5 -22 0 -33 -24 -58 -36 -36 -62 -38 -96 -7 -36 32 -42 67 -16 100 26 32 76 37 108 10z"></path> <path d="M1902 3151 c-114 -39 -209 -133 -266 -262 l-23 -52 -21 34 c-26 43 -106 119 -153 147 -43 26 -140 52 -192 52 -135 0 -245 -111 -235 -236 9 -105 121 -274 171 -258 12 3 24 8 25 10 2 1 -9 33 -24 71 -22 54 -28 84 -29 146 0 76 1 80 32 107 51 46 96 49 169 11 76 -40 171 -124 214 -191 18 -27 37 -50 44 -50 38 1 53 14 70 63 24 67 94 175 150 232 77 76 168 81 220 12 25 -33 34 -149 18 -234 -9 -50 -8 -52 16 -58 27 -7 40 5 72 73 82 172 57 311 -69 375 -64 32 -114 34 -189 8z m133 -12 c148 -41 188 -206 94 -391 -25 -49 -52 -52 -41 -5 4 17 7 73 7 122 0 111 -21 154 -89 180 -61 23 -113 8 -179 -53 -59 -55 -140 -175 -164 -243 -22 -62 -42 -63 -82 -5 -80 116 -225 219 -307 219 -59 0 -112 -35 -136 -91 -25 -56 -19 -126 17 -216 13 -33 22 -62 19 -66 -11 -10 -84 83 -115 146 -27 55 -31 71 -27 123 5 71 39 126 97 159 53 30 168 30 246 1 65 -24 157 -105 206 -180 17 -28 35 -47 39 -42 4 4 15 31 24 59 18 57 64 134 104 177 39 41 118 89 171 103 59 16 67 16 116 3z"></path> <path d="M1884 2962 c-22 -11 -57 -39 -77 -63 -45 -52 -97 -153 -97 -187 0 -22 3 -24 31 -18 17 3 51 6 75 6 36 0 44 3 44 19 0 10 7 24 15 31 8 7 15 26 15 42 0 23 -4 29 -15 24 -8 -3 -22 -9 -30 -12 -11 -5 -15 1 -15 19 0 34 17 43 40 22 21 -19 35 -6 25 25 -5 16 -2 20 19 20 26 0 35 -14 16 -25 -5 -3 -10 -13 -10 -22 0 -12 7 -14 30 -9 27 5 30 3 30 -19 0 -27 -18 -33 -38 -13 -22 22 -34 -5 -27 -56 l7 -46 49 0 c44 0 51 3 60 26 12 34 13 152 1 184 -23 61 -83 81 -148 52z m102 -35 c22 -19 28 -34 32 -80 2 -31 1 -72 -2 -92 -6 -32 -10 -35 -40 -35 -25 0 -35 6 -44 25 -18 39 -14 50 8 30 19 -17 21 -17 40 0 14 13 20 29 18 49 -3 32 -13 36 -53 20 -20 -7 -20 -7 -1 14 26 30 14 52 -27 52 -35 0 -63 -20 -49 -35 4 -5 -1 -5 -10 -2 -11 4 -24 -3 -38 -20 -24 -30 -25 -43 -6 -68 14 -19 15 -19 33 -2 29 26 34 10 10 -28 -22 -33 -50 -45 -108 -45 l-28 0 27 63 c17 39 47 83 82 120 48 49 61 57 92 57 24 0 46 -8 64 -23z"></path> <path d="M1244 2871 c-59 -36 -66 -103 -23 -218 22 -58 29 -61 87 -38 36 15 38 18 36 58 -2 57 -2 57 -19 57 -8 0 -19 -9 -25 -21 -9 -16 -14 -18 -26 -8 -8 6 -14 20 -14 31 0 17 5 19 25 14 32 -8 46 19 20 38 -22 16 -12 36 17 36 15 0 19 -5 15 -19 -2 -10 -1 -25 4 -32 6 -11 13 -9 32 9 26 24 37 20 37 -13 0 -18 -4 -21 -25 -17 -21 4 -25 1 -25 -21 0 -15 9 -31 25 -41 14 -9 25 -23 25 -32 0 -10 6 -14 18 -10 9 2 43 10 75 17 31 7 57 16 57 20 0 16 -83 116 -123 148 -79 63 -138 76 -193 42z m150 -44 c27 -17 68 -56 92 -86 l44 -56 -50 -11 c-49 -12 -51 -11 -80 18 -17 16 -30 31 -30 32 0 1 10 2 21 2 31 -1 46 26 31 58 -13 30 -39 34 -59 9 -12 -16 -13 -15 -7 9 5 23 2 28 -21 34 -20 5 -32 1 -51 -17 -13 -13 -22 -29 -20 -35 3 -7 -2 -18 -10 -25 -20 -16 -14 -69 9 -83 15 -9 22 -7 38 13 l19 23 0 -41 c0 -26 -5 -41 -12 -41 -7 0 -22 -3 -34 -6 -17 -5 -24 2 -39 43 -11 26 -19 72 -19 102 0 46 3 57 28 78 36 31 79 25 150 -20z"></path> <path d="M1675 2655 c-212 -25 -470 -92 -517 -133 -28 -24 -16 -92 16 -92 8 0 11 -10 8 -29 -3 -23 1 -33 20 -45 19 -12 24 -23 20 -45 -6 -43 12 -45 62 -7 57 43 123 74 254 120 170 59 272 58 466 -4 115 -37 118 -37 114 -2 -2 18 -8 26 -18 24 -8 -2 -2 9 13 24 23 21 28 32 23 56 -4 20 -1 35 9 45 20 20 19 46 -4 74 -17 22 -25 23 -182 25 -97 2 -213 -3 -284 -11z m398 -13 c28 -3 41 -11 52 -32 15 -28 5 -50 -22 -50 -17 0 -16 -6 3 -36 16 -24 16 -26 -7 -50 -20 -21 -21 -28 -11 -44 7 -11 12 -21 12 -24 0 -2 -28 7 -62 19 -191 69 -343 72 -518 10 -122 -43 -167 -65 -233 -112 -53 -37 -67 -37 -49 2 11 23 9 27 -13 35 -27 10 -35 52 -12 67 8 5 2 9 -18 13 -26 5 -30 9 -30 39 l0 34 99 33 c227 77 606 122 809 96z"></path> <path d="M1832 2270 c-13 -6 -22 -16 -20 -22 5 -15 6 -15 71 -4 33 6 63 4 89 -3 46 -14 69 -3 42 20 -20 17 -149 23 -182 9z"></path> <path d="M1535 2229 c-22 -5 -62 -26 -88 -45 -38 -28 -46 -38 -37 -49 9 -11 20 -7 60 20 27 18 68 36 90 40 30 5 40 11 38 23 -4 20 -14 22 -63 11z"></path> <path d="M1883 2180 c-46 -19 -69 -126 -42 -197 14 -38 58 -83 82 -83 98 0 119 182 30 260 -37 33 -38 33 -70 20z m65 -45 c10 -13 25 -44 32 -69 14 -51 3 -102 -30 -131 -41 -37 -94 33 -94 127 -1 88 49 128 92 73z"></path> <path d="M1900 2070 c-22 -22 -26 -51 -10 -81 12 -21 50 -25 68 -7 18 18 14 73 -6 91 -24 22 -28 21 -52 -3z m50 -44 c0 -20 -19 -31 -32 -18 -6 6 -7 15 -4 21 10 16 36 13 36 -3z"></path> <path d="M1537 2119 c-72 -42 -53 -230 27 -268 101 -48 148 159 56 251 -30 30 -53 34 -83 17z m66 -35 c49 -49 59 -134 22 -190 -20 -30 -45 -31 -74 0 -46 48 -51 151 -10 195 25 27 31 26 62 -5z"></path> <path d="M1560 2020 c-24 -24 -25 -48 -4 -78 17 -24 43 -29 62 -10 17 17 15 74 -4 92 -20 21 -30 20 -54 -4z m49 -57 c-15 -18 -34 -1 -25 22 5 14 9 15 21 5 12 -10 13 -16 4 -27z"></path> <path d="M1964 1791 c21 -23 13 -42 -31 -82 -73 -67 -213 -67 -296 2 -35 29 -37 32 -20 45 16 12 16 13 2 14 -9 0 -22 -7 -29 -15 -7 -8 -19 -15 -26 -15 -8 0 -14 -4 -14 -10 0 -5 5 -10 11 -10 6 0 29 -16 50 -35 104 -94 316 -78 379 28 10 18 26 40 36 50 17 16 17 17 -3 17 -11 0 -26 7 -33 15 -7 8 -19 15 -28 15 -13 0 -13 -3 2 -19z"></path> <path d="M1974 1454 c-74 -35 -154 -47 -279 -42 -88 4 -123 11 -176 32 -36 14 -73 26 -81 26 -9 0 -38 -20 -64 -44 -42 -38 -47 -45 -35 -60 12 -14 55 -15 408 -13 364 2 397 3 407 19 9 15 3 25 -39 62 -28 25 -59 45 -70 45 -11 0 -43 -12 -71 -25z m175 -76 c1 -5 -182 -8 -406 -8 -223 0 -404 1 -402 3 2 2 25 22 50 45 l46 42 41 -20 c138 -67 383 -66 518 3 l48 24 52 -41 c29 -23 53 -44 53 -48z"></path> <path d="M1966 1042 c-2 -4 -1 -14 5 -22 7 -12 9 -10 9 8 0 23 -5 28 -14 14z"></path> <path d="M1988 955 c2 -14 8 -25 12 -25 10 0 1 38 -10 45 -4 2 -5 -7 -2 -20z"></path> <path d="M2058 203 c7 -3 16 -2 19 1 4 3 -2 6 -13 5 -11 0 -14 -3 -6 -6z"></path> </g> </svg> 